<svg width="359" height="49" viewBox="0 0 359 49" fill="none" xmlns="http://www.w3.org/2000/svg">
<path d="M18.592 12.16C21.3653 12.16 23.84 12.736 26.016 13.888C28.2347 15.04 29.9627 16.7467 31.2 19.008C32.4373 21.2693 33.056 24 33.056 27.2V48H25.824V28.288C25.824 25.1307 25.0347 22.72 23.456 21.056C21.8773 19.3493 19.7227 18.496 16.992 18.496C14.2613 18.496 12.0853 19.3493 10.464 21.056C8.88533 22.72 8.096 25.1307 8.096 28.288V48H0.8V12.736H8.096V16.768C9.29067 15.3173 10.8053 14.1867 12.64 13.376C14.5173 12.5653 16.5013 12.16 18.592 12.16ZM74.6825 29.376C74.6825 30.6133 74.5972 31.7653 74.4265 32.832H47.4185C47.6318 35.776 48.6772 38.1227 50.5545 39.872C52.4318 41.5787 54.7572 42.432 57.5305 42.432C61.4558 42.432 64.2292 40.7893 65.8505 37.504H73.7225C72.6558 40.7467 70.7145 43.4133 67.8985 45.504C65.1252 47.552 61.6692 48.576 57.5305 48.576C54.1598 48.576 51.1305 47.8293 48.4425 46.336C45.7972 44.8 43.7065 42.6667 42.1705 39.936C40.6772 37.1627 39.9305 33.9627 39.9305 30.336C39.9305 26.7093 40.6558 23.5307 42.1065 20.8C43.5998 18.0267 45.6692 15.8933 48.3145 14.4C51.0025 12.9067 54.0745 12.16 57.5305 12.16C60.8585 12.16 63.8238 12.8853 66.4265 14.336C69.0292 15.7867 71.0558 17.8133 72.5065 20.416C73.9572 23.0187 74.6825 26.0053 74.6825 29.376ZM67.0665 27.584C67.0238 24.7253 66.0638 22.464 64.1865 20.8C62.3518 19.136 60.0265 18.304 57.2105 18.304C54.6505 18.304 52.4532 19.136 50.6185 20.8C48.8265 22.464 47.7812 24.7253 47.4825 27.584H67.0665ZM113.799 12.736V48H106.503V43.84C105.351 45.2907 103.836 46.4427 101.959 47.296C100.124 48.1067 98.1612 48.512 96.0705 48.512C93.2972 48.512 90.8012 47.936 88.5825 46.784C86.4065 45.632 84.6785 43.9253 83.3985 41.664C82.1612 39.4027 81.5425 36.672 81.5425 33.472V12.736H88.7745V32.384C88.7745 35.5413 89.5638 37.9733 91.1425 39.68C92.7212 41.344 94.8758 42.176 97.6065 42.176C100.337 42.176 102.492 41.344 104.071 39.68C105.692 37.9733 106.503 35.5413 106.503 32.384V12.736H113.799ZM130.721 18.88C131.788 16.7467 133.196 15.104 134.945 13.952C136.737 12.7573 138.849 12.16 141.281 12.16V19.712H139.425C136.566 19.712 134.39 20.4373 132.897 21.888C131.446 23.3387 130.721 25.856 130.721 29.44V48H123.425V12.736H130.721V18.88ZM163.284 48.576C159.956 48.576 156.948 47.8293 154.26 46.336C151.572 44.8 149.46 42.6667 147.924 39.936C146.388 37.1627 145.62 33.9627 145.62 30.336C145.62 26.752 146.409 23.5733 147.988 20.8C149.566 18.0267 151.721 15.8933 154.452 14.4C157.182 12.9067 160.233 12.16 163.604 12.16C166.974 12.16 170.025 12.9067 172.756 14.4C175.486 15.8933 177.641 18.0267 179.22 20.8C180.798 23.5733 181.588 26.752 181.588 30.336C181.588 33.92 180.777 37.0987 179.156 39.872C177.534 42.6453 175.316 44.8 172.5 46.336C169.726 47.8293 166.654 48.576 163.284 48.576ZM163.284 42.432C165.161 42.432 166.91 41.9627 168.532 41.024C170.196 40.0853 171.54 38.72 172.564 36.928C173.588 35.0933 174.1 32.896 174.1 30.336C174.1 27.776 173.609 25.6 172.628 23.808C171.646 21.9733 170.345 20.608 168.724 19.712C167.102 18.7733 165.353 18.304 163.476 18.304C161.598 18.304 159.87 18.7733 158.292 19.712C156.713 20.608 155.433 21.9733 154.452 23.808C153.513 25.6 153.044 27.776 153.044 30.336C153.044 32.896 153.492 35.0933 154.388 36.928C155.326 38.7627 156.564 40.1493 158.1 41.088C159.678 41.984 161.406 42.432 163.284 42.432ZM186.368 30.336C186.368 26.7093 187.093 23.5307 188.544 20.8C190.037 18.0267 192.085 15.8933 194.688 14.4C197.291 12.9067 200.277 12.16 203.648 12.16C207.915 12.16 211.435 13.184 214.208 15.232C217.024 17.2373 218.923 20.1173 219.904 23.872H212.032C211.392 22.1227 210.368 20.7573 208.96 19.776C207.552 18.7947 205.781 18.304 203.648 18.304C200.661 18.304 198.272 19.3707 196.48 21.504C194.731 23.5947 193.856 26.5387 193.856 30.336C193.856 34.1333 194.731 37.0987 196.48 39.232C198.272 41.3653 200.661 42.432 203.648 42.432C207.872 42.432 210.667 40.576 212.032 36.864H219.904C218.88 40.448 216.96 43.3067 214.144 45.44C211.328 47.5307 207.829 48.576 203.648 48.576C200.277 48.576 197.291 47.8293 194.688 46.336C192.085 44.8 190.037 42.6667 188.544 39.936C187.093 37.1627 186.368 33.9627 186.368 30.336ZM242.471 48.576C239.143 48.576 236.135 47.8293 233.447 46.336C230.759 44.8 228.647 42.6667 227.111 39.936C225.575 37.1627 224.807 33.9627 224.807 30.336C224.807 26.752 225.596 23.5733 227.175 20.8C228.754 18.0267 230.908 15.8933 233.639 14.4C236.37 12.9067 239.42 12.16 242.791 12.16C246.162 12.16 249.212 12.9067 251.943 14.4C254.674 15.8933 256.828 18.0267 258.407 20.8C259.986 23.5733 260.775 26.752 260.775 30.336C260.775 33.92 259.964 37.0987 258.343 39.872C256.722 42.6453 254.503 44.8 251.687 46.336C248.914 47.8293 245.842 48.576 242.471 48.576ZM242.471 42.432C244.348 42.432 246.098 41.9627 247.719 41.024C249.383 40.0853 250.727 38.72 251.751 36.928C252.775 35.0933 253.287 32.896 253.287 30.336C253.287 27.776 252.796 25.6 251.815 23.808C250.834 21.9733 249.532 20.608 247.911 19.712C246.29 18.7733 244.54 18.304 242.663 18.304C240.786 18.304 239.058 18.7733 237.479 19.712C235.9 20.608 234.62 21.9733 233.639 23.808C232.7 25.6 232.231 27.776 232.231 30.336C232.231 32.896 232.679 35.0933 233.575 36.928C234.514 38.7627 235.751 40.1493 237.287 41.088C238.866 41.984 240.594 42.432 242.471 42.432ZM265.556 30.208C265.556 26.6667 266.281 23.5307 267.732 20.8C269.225 18.0693 271.23 15.9573 273.748 14.464C276.308 12.928 279.145 12.16 282.26 12.16C284.564 12.16 286.825 12.672 289.044 13.696C291.305 14.6773 293.097 16 294.42 17.664V0.639999H301.78V48H294.42V42.688C293.225 44.3947 291.561 45.8027 289.428 46.912C287.337 48.0213 284.926 48.576 282.196 48.576C279.124 48.576 276.308 47.808 273.748 46.272C271.23 44.6933 269.225 42.5173 267.732 39.744C266.281 36.928 265.556 33.7493 265.556 30.208ZM294.42 30.336C294.42 27.904 293.908 25.792 292.884 24C291.902 22.208 290.601 20.8427 288.98 19.904C287.358 18.9653 285.609 18.496 283.732 18.496C281.854 18.496 280.105 18.9653 278.484 19.904C276.862 20.8 275.54 22.144 274.516 23.936C273.534 25.6853 273.044 27.776 273.044 30.208C273.044 32.64 273.534 34.7733 274.516 36.608C275.54 38.4427 276.862 39.8507 278.484 40.832C280.148 41.7707 281.897 42.24 283.732 42.24C285.609 42.24 287.358 41.7707 288.98 40.832C290.601 39.8933 291.902 38.528 292.884 36.736C293.908 34.9013 294.42 32.768 294.42 30.336ZM343.683 29.376C343.683 30.6133 343.597 31.7653 343.427 32.832H316.419C316.632 35.776 317.677 38.1227 319.555 39.872C321.432 41.5787 323.757 42.432 326.531 42.432C330.456 42.432 333.229 40.7893 334.851 37.504H342.722C341.656 40.7467 339.715 43.4133 336.899 45.504C334.125 47.552 330.669 48.576 326.531 48.576C323.16 48.576 320.131 47.8293 317.443 46.336C314.797 44.8 312.707 42.6667 311.171 39.936C309.677 37.1627 308.931 33.9627 308.931 30.336C308.931 26.7093 309.656 23.5307 311.107 20.8C312.6 18.0267 314.669 15.8933 317.315 14.4C320.003 12.9067 323.075 12.16 326.531 12.16C329.859 12.16 332.824 12.8853 335.427 14.336C338.029 15.7867 340.056 17.8133 341.507 20.416C342.957 23.0187 343.683 26.0053 343.683 29.376ZM336.067 27.584C336.024 24.7253 335.064 22.464 333.187 20.8C331.352 19.136 329.027 18.304 326.211 18.304C323.651 18.304 321.453 19.136 319.619 20.8C317.827 22.464 316.781 24.7253 316.483 27.584H336.067ZM353.807 48.448C352.484 48.448 351.375 48 350.479 47.104C349.583 46.208 349.135 45.0987 349.135 43.776C349.135 42.4533 349.583 41.344 350.479 40.448C351.375 39.552 352.484 39.104 353.807 39.104C355.087 39.104 356.175 39.552 357.071 40.448C357.967 41.344 358.415 42.4533 358.415 43.776C358.415 45.0987 357.967 46.208 357.071 47.104C356.175 48 355.087 48.448 353.807 48.448Z" fill="white"/>
</svg>
